<svg width="16" height="16" viewBox="0 0 16 16" fill="none" xmlns="http://www.w3.org/2000/svg">
<path d="M8.48066 3.33536L7.50333 3.33336C5.274 3.32802 3.33866 5.13936 3.32333 7.33335V9.86002C3.32333 10.3867 3.25666 10.9007 2.96933 11.3387L2.778 11.6307C2.48666 12.0734 2.8 12.6667 3.32333 12.6667H12.6767C13.2 12.6667 13.5127 12.0734 13.222 11.6307L13.0307 11.3387C12.744 10.9007 12.6767 10.386 12.6767 9.85935V7.33402C12.65 5.13936 10.71 3.34069 8.48066 3.33536V3.33536Z" stroke="#444B76" stroke-width="2" stroke-linecap="round" stroke-linejoin="round"/>
<path d="M10 12.6667C10 13.1971 9.78929 13.7058 9.41421 14.0809C9.03914 14.456 8.53043 14.6667 8 14.6667C7.46957 14.6667 6.96086 14.456 6.58579 14.0809C6.21071 13.7058 6 13.1971 6 12.6667" stroke="#444B76" stroke-width="2" stroke-linecap="round" stroke-linejoin="round"/>
<path d="M7.99999 1.33334C8.35361 1.33334 8.69275 1.47382 8.9428 1.72387C9.19285 1.97392 9.33332 2.31305 9.33332 2.66668V3.33334H6.66666V2.66668C6.66666 2.31305 6.80713 1.97392 7.05718 1.72387C7.30723 1.47382 7.64637 1.33334 7.99999 1.33334Z" stroke="#444B76" stroke-width="2" stroke-linecap="round" stroke-linejoin="round"/>
</svg>
