<svg width="24" height="24" viewBox="0 0 24 24" fill="none" xmlns="http://www.w3.org/2000/svg">
<path d="M19.0455 7.40088C19.4235 7.02288 19.6315 6.52088 19.6315 5.98688C19.6315 5.45288 19.4235 4.95088 19.0455 4.57288L17.4595 2.98688C17.0815 2.60888 16.5795 2.40088 16.0455 2.40088C15.5115 2.40088 15.0095 2.60888 14.6325 2.98588L4.00049 13.5849V17.9999H8.41349L19.0455 7.40088ZM16.0455 4.40088L17.6325 5.98588L16.0425 7.56988L14.4565 5.98488L16.0455 4.40088ZM6.00049 15.9999V14.4149L13.0405 7.39688L14.6265 8.98288L7.58749 15.9999H6.00049ZM4.00049 19.9999H20.0005V21.9999H4.00049V19.9999Z" fill="#444B76"/>
</svg>
