<svg width="16" height="16" viewBox="0 0 16 16" fill="none" xmlns="http://www.w3.org/2000/svg">
<path d="M12.6966 4.93401C12.9486 4.68201 13.0873 4.34734 13.0873 3.99134C13.0873 3.63534 12.9486 3.30068 12.6966 3.04868L11.6393 1.99134C11.3873 1.73934 11.0526 1.60068 10.6966 1.60068C10.3406 1.60068 10.006 1.73934 9.75463 1.99068L2.66663 9.05668V12H5.60863L12.6966 4.93401ZM10.6966 2.93401L11.7546 3.99068L10.6946 5.04668L9.63729 3.99001L10.6966 2.93401ZM3.99996 10.6667V9.61001L8.69329 4.93134L9.75063 5.98868L5.05796 10.6667H3.99996ZM2.66663 13.3333H13.3333V14.6667H2.66663V13.3333Z" fill="#444B76"/>
</svg>
