<svg width="19" height="19" viewBox="0 0 19 19" fill="none" xmlns="http://www.w3.org/2000/svg">
<path d="M19 11.5583C19 12.0333 18.05 12.35 16.9417 12.5083C16.2292 11.1625 14.8042 10.1333 13.1417 9.42082C13.3 9.18332 13.4583 9.02499 13.6167 8.78749H14.25C16.7042 8.70832 19 10.2125 19 11.5583ZM5.38333 8.70832H4.75C2.29583 8.70832 0 10.2125 0 11.5583C0 12.0333 0.95 12.35 2.05833 12.5083C2.77083 11.1625 4.19583 10.1333 5.85833 9.42082L5.38333 8.70832ZM9.5 9.49999C11.2417 9.49999 12.6667 8.07499 12.6667 6.33332C12.6667 4.59166 11.2417 3.16666 9.5 3.16666C7.75833 3.16666 6.33333 4.59166 6.33333 6.33332C6.33333 8.07499 7.75833 9.49999 9.5 9.49999ZM9.5 10.2917C6.25417 10.2917 3.16667 12.35 3.16667 14.25C3.16667 15.8333 9.5 15.8333 9.5 15.8333C9.5 15.8333 15.8333 15.8333 15.8333 14.25C15.8333 12.35 12.7458 10.2917 9.5 10.2917ZM14.0125 7.91666H14.25C15.5958 7.91666 16.625 6.88749 16.625 5.54166C16.625 4.19582 15.5958 3.16666 14.25 3.16666C13.8542 3.16666 13.5375 3.24582 13.2208 3.40416C13.8542 4.19582 14.25 5.22499 14.25 6.33332C14.25 6.88749 14.1708 7.44166 14.0125 7.91666ZM4.75 7.91666H4.9875C4.82917 7.44166 4.75 6.88749 4.75 6.33332C4.75 5.22499 5.14583 4.19582 5.77917 3.40416C5.4625 3.24582 5.14583 3.16666 4.75 3.16666C3.40417 3.16666 2.375 4.19582 2.375 5.54166C2.375 6.88749 3.40417 7.91666 4.75 7.91666Z" fill="#393939"/>
</svg>
