<svg width="21" height="21" viewBox="0 0 21 21" fill="none" xmlns="http://www.w3.org/2000/svg">
<path d="M4.949 17.9191C4.82337 18.0284 4.66918 18.0995 4.50453 18.1242C4.33988 18.1489 4.17161 18.126 4.01948 18.0584C3.86734 17.9908 3.73765 17.8812 3.64564 17.7424C3.55362 17.6037 3.5031 17.4416 3.5 17.2751V15.3125C3.03587 15.3125 2.59075 15.1281 2.26256 14.7999C1.93437 14.4717 1.75 14.0266 1.75 13.5625V7.4375C1.75 6.97337 1.93437 6.52825 2.26256 6.20006C2.59075 5.87187 3.03587 5.6875 3.5 5.6875H13.125C13.5891 5.6875 14.0342 5.87187 14.3624 6.20006C14.6906 6.52825 14.875 6.97337 14.875 7.4375V13.5625C14.875 14.0266 14.6906 14.4717 14.3624 14.7999C14.0342 15.1281 13.5891 15.3125 13.125 15.3125H8.75263L4.949 17.9191ZM5.6875 15.2128C5.76723 15.2123 5.84553 15.1915 5.915 15.1524L7.97563 13.7191C8.12228 13.6171 8.29663 13.5625 8.47525 13.5625H12.25C12.4821 13.5625 12.7046 13.4703 12.8687 13.3062C13.0328 13.1421 13.125 12.9196 13.125 12.6875V8.3125C13.125 8.08044 13.0328 7.85788 12.8687 7.69378C12.7046 7.52969 12.4821 7.4375 12.25 7.4375H4.375C4.14294 7.4375 3.92038 7.52969 3.75628 7.69378C3.59219 7.85788 3.5 8.08044 3.5 8.3125V12.6875C3.5 13.16 3.87538 13.5468 4.375 13.5625C4.73375 13.5765 4.99362 13.6351 5.1135 13.7603C5.2255 13.8775 5.23163 14.0753 5.25 14.4515C5.25262 14.5066 5.25262 14.6064 5.25 14.7753C5.25 14.8913 5.29609 15.0026 5.37814 15.0846C5.46019 15.1667 5.57147 15.2128 5.6875 15.2128ZM15.75 10.9515C15.7472 11.0594 15.7472 11.1674 15.75 11.2753V10.9515C15.7675 10.5753 15.7745 10.3775 15.8865 10.2603C16.0064 10.1351 16.2662 10.0765 16.625 10.0625C17.1246 10.0468 17.5 9.66 17.5 9.1875V4.8125C17.5 4.58044 17.4078 4.35788 17.2437 4.19378C17.0796 4.02969 16.8571 3.9375 16.625 3.9375H8.75C8.51794 3.9375 8.29538 4.02969 8.13128 4.19378C7.96719 4.35788 7.875 4.58044 7.875 4.8125H6.125V3.9375C6.125 3.47337 6.30937 3.02825 6.63756 2.70006C6.96575 2.37187 7.41087 2.1875 7.875 2.1875H17.5C17.9641 2.1875 18.4092 2.37187 18.7374 2.70006C19.0656 3.02825 19.25 3.47337 19.25 3.9375V10.0625C19.25 10.5266 19.0656 10.9717 18.7374 11.2999C18.4092 11.6281 17.9641 11.8125 17.5 11.8125V13.7751C17.4969 13.9416 17.4464 14.1037 17.3544 14.2424C17.2623 14.3812 17.1327 14.4908 16.9805 14.5584C16.8284 14.626 16.6601 14.6489 16.4955 14.6242C16.3308 14.5995 16.1766 14.5284 16.051 14.4191L15.75 14.2126V10.9524V10.9515Z" fill="#444B76"/>
</svg>
