<svg width="201" height="48" viewBox="0 0 201 48" fill="none" xmlns="http://www.w3.org/2000/svg">
<path d="M61.042 18.434C62.79 18.434 64.063 18.814 64.861 19.574C65.6717 20.3213 66.077 21.3537 66.077 22.671C66.077 23.4563 65.9123 24.1973 65.583 24.894C65.2537 25.578 64.7027 26.129 63.93 26.547C63.17 26.965 62.1313 27.174 60.814 27.174H59.579V32H56.71V18.434H61.042ZM60.89 20.79H59.579V24.818H60.529C61.3397 24.818 61.9793 24.6597 62.448 24.343C62.9293 24.0137 63.17 23.488 63.17 22.766C63.17 21.4487 62.41 20.79 60.89 20.79ZM77.8367 26.794C77.8367 28.5167 77.3807 29.8467 76.4687 30.784C75.5693 31.7213 74.3407 32.19 72.7827 32.19C71.82 32.19 70.9587 31.981 70.1987 31.563C69.4513 31.145 68.8623 30.537 68.4317 29.739C68.001 28.9283 67.7857 27.9467 67.7857 26.794C67.7857 25.0713 68.2353 23.7477 69.1347 22.823C70.034 21.8983 71.269 21.436 72.8397 21.436C73.815 21.436 74.6763 21.645 75.4237 22.063C76.171 22.481 76.76 23.089 77.1907 23.887C77.6213 24.6723 77.8367 25.6413 77.8367 26.794ZM70.6737 26.794C70.6737 27.82 70.8383 28.599 71.1677 29.131C71.5097 29.6503 72.0607 29.91 72.8207 29.91C73.568 29.91 74.1063 29.6503 74.4357 29.131C74.7777 28.599 74.9487 27.82 74.9487 26.794C74.9487 25.768 74.7777 25.0017 74.4357 24.495C74.1063 23.9757 73.5617 23.716 72.8017 23.716C72.0543 23.716 71.5097 23.9757 71.1677 24.495C70.8383 25.0017 70.6737 25.768 70.6737 26.794ZM84.3943 32.19C82.849 32.19 81.652 31.7657 80.8033 30.917C79.9673 30.0557 79.5493 28.7067 79.5493 26.87C79.5493 25.6033 79.7647 24.571 80.1953 23.773C80.626 22.975 81.2213 22.386 81.9813 22.006C82.754 21.626 83.6407 21.436 84.6413 21.436C85.3507 21.436 85.965 21.5057 86.4843 21.645C87.0163 21.7843 87.4787 21.949 87.8713 22.139L87.0353 24.324C86.592 24.1467 86.174 24.001 85.7813 23.887C85.4013 23.773 85.0213 23.716 84.6413 23.716C83.172 23.716 82.4373 24.761 82.4373 26.851C82.4373 27.8897 82.6273 28.656 83.0073 29.15C83.4 29.644 83.9447 29.891 84.6413 29.891C85.2367 29.891 85.7623 29.815 86.2183 29.663C86.6743 29.4983 87.1177 29.2767 87.5483 28.998V31.411C87.1177 31.6897 86.6617 31.886 86.1803 32C85.7117 32.1267 85.1163 32.19 84.3943 32.19ZM93.5841 20.638C92.9761 20.638 92.3744 20.7267 91.7791 20.904C91.1838 21.0687 90.6011 21.2713 90.0311 21.512L89.1191 19.194C89.7904 18.9027 90.4998 18.6747 91.2471 18.51C91.9944 18.3327 92.7924 18.244 93.6411 18.244C95.6424 18.244 97.1941 18.8583 98.2961 20.087C99.3981 21.303 99.9491 23.0193 99.9491 25.236C99.9491 26.6293 99.7148 27.8517 99.2461 28.903C98.7774 29.9417 98.0554 30.7523 97.0801 31.335C96.1174 31.905 94.8824 32.19 93.3751 32.19C92.6024 32.19 91.8994 32.133 91.2661 32.019C90.6454 31.905 90.0121 31.7277 89.3661 31.487V29.074C90.0881 29.302 90.7531 29.4793 91.3611 29.606C91.9818 29.7327 92.5961 29.796 93.2041 29.796C94.3694 29.796 95.2688 29.511 95.9021 28.941C96.5354 28.3583 96.8774 27.4907 96.9281 26.338H91.0381V23.982H96.9091C96.8711 22.9307 96.5544 22.1137 95.9591 21.531C95.3638 20.9357 94.5721 20.638 93.5841 20.638ZM105.366 21.626V25.616H109.318V21.626H112.149V32H109.318V27.725H105.366V32H102.535V21.626H105.366ZM119.39 21.436C120.821 21.436 121.955 21.8477 122.791 22.671C123.627 23.4817 124.045 24.6407 124.045 26.148V27.516H117.357C117.382 28.314 117.616 28.941 118.06 29.397C118.516 29.853 119.143 30.081 119.941 30.081C120.612 30.081 121.22 30.0177 121.765 29.891C122.309 29.7517 122.873 29.5427 123.456 29.264V31.449C122.949 31.7023 122.411 31.886 121.841 32C121.283 32.1267 120.606 32.19 119.808 32.19C118.769 32.19 117.851 32 117.053 31.62C116.255 31.2273 115.628 30.6383 115.172 29.853C114.716 29.0677 114.488 28.0797 114.488 26.889C114.488 25.673 114.69 24.666 115.096 23.868C115.514 23.0573 116.09 22.4493 116.825 22.044C117.559 21.6387 118.414 21.436 119.39 21.436ZM119.409 23.45C118.864 23.45 118.408 23.6273 118.041 23.982C117.686 24.3367 117.477 24.8877 117.414 25.635H121.385C121.372 25.0017 121.207 24.4823 120.891 24.077C120.574 23.659 120.08 23.45 119.409 23.45ZM132.116 21.436C133.282 21.436 134.225 21.892 134.947 22.804C135.669 23.7033 136.03 25.0333 136.03 26.794C136.03 28.5547 135.657 29.8973 134.909 30.822C134.162 31.734 133.206 32.19 132.04 32.19C131.293 32.19 130.698 32.057 130.254 31.791C129.811 31.5123 129.45 31.202 129.171 30.86H129.019C129.121 31.392 129.171 31.8987 129.171 32.38V36.56H126.34V21.626H128.639L129.038 22.975H129.171C129.45 22.557 129.824 22.196 130.292 21.892C130.761 21.588 131.369 21.436 132.116 21.436ZM131.204 23.697C130.47 23.697 129.95 23.925 129.646 24.381C129.355 24.837 129.197 25.5337 129.171 26.471V26.775C129.171 27.7757 129.317 28.5483 129.608 29.093C129.912 29.625 130.457 29.891 131.242 29.891C131.888 29.891 132.363 29.625 132.667 29.093C132.984 28.5483 133.142 27.7693 133.142 26.756C133.142 24.7167 132.496 23.697 131.204 23.697ZM145.527 21.626V23.754H141.195V32H138.364V21.626H145.527ZM156.676 26.794C156.676 28.5167 156.22 29.8467 155.308 30.784C154.408 31.7213 153.18 32.19 151.622 32.19C150.659 32.19 149.798 31.981 149.038 31.563C148.29 31.145 147.701 30.537 147.271 29.739C146.84 28.9283 146.625 27.9467 146.625 26.794C146.625 25.0713 147.074 23.7477 147.974 22.823C148.873 21.8983 150.108 21.436 151.679 21.436C152.654 21.436 153.515 21.645 154.263 22.063C155.01 22.481 155.599 23.089 156.03 23.887C156.46 24.6723 156.676 25.6413 156.676 26.794ZM149.513 26.794C149.513 27.82 149.677 28.599 150.007 29.131C150.349 29.6503 150.9 29.91 151.66 29.91C152.407 29.91 152.945 29.6503 153.275 29.131C153.617 28.599 153.788 27.82 153.788 26.794C153.788 25.768 153.617 25.0017 153.275 24.495C152.945 23.9757 152.401 23.716 151.641 23.716C150.893 23.716 150.349 23.9757 150.007 24.495C149.677 25.0017 149.513 25.768 149.513 26.794ZM163.233 32.19C161.688 32.19 160.491 31.7657 159.642 30.917C158.806 30.0557 158.388 28.7067 158.388 26.87C158.388 25.6033 158.604 24.571 159.034 23.773C159.465 22.975 160.06 22.386 160.82 22.006C161.593 21.626 162.48 21.436 163.48 21.436C164.19 21.436 164.804 21.5057 165.323 21.645C165.855 21.7843 166.318 21.949 166.71 22.139L165.874 24.324C165.431 24.1467 165.013 24.001 164.62 23.887C164.24 23.773 163.86 23.716 163.48 23.716C162.011 23.716 161.276 24.761 161.276 26.851C161.276 27.8897 161.466 28.656 161.846 29.15C162.239 29.644 162.784 29.891 163.48 29.891C164.076 29.891 164.601 29.815 165.057 29.663C165.513 29.4983 165.957 29.2767 166.387 28.998V31.411C165.957 31.6897 165.501 31.886 165.019 32C164.551 32.1267 163.955 32.19 163.233 32.19ZM173.05 21.436C174.481 21.436 175.615 21.8477 176.451 22.671C177.287 23.4817 177.705 24.6407 177.705 26.148V27.516H171.017C171.042 28.314 171.277 28.941 171.72 29.397C172.176 29.853 172.803 30.081 173.601 30.081C174.272 30.081 174.88 30.0177 175.425 29.891C175.97 29.7517 176.533 29.5427 177.116 29.264V31.449C176.609 31.7023 176.071 31.886 175.501 32C174.944 32.1267 174.266 32.19 173.468 32.19C172.429 32.19 171.511 32 170.713 31.62C169.915 31.2273 169.288 30.6383 168.832 29.853C168.376 29.0677 168.148 28.0797 168.148 26.889C168.148 25.673 168.351 24.666 168.756 23.868C169.174 23.0573 169.75 22.4493 170.485 22.044C171.22 21.6387 172.075 21.436 173.05 21.436ZM173.069 23.45C172.524 23.45 172.068 23.6273 171.701 23.982C171.346 24.3367 171.137 24.8877 171.074 25.635H175.045C175.032 25.0017 174.868 24.4823 174.551 24.077C174.234 23.659 173.74 23.45 173.069 23.45ZM188.589 23.754H185.188V32H182.357V23.754H178.956V21.626H188.589V23.754ZM195.329 25.635C196.925 25.635 198.103 25.8883 198.863 26.395C199.635 26.9017 200.022 27.668 200.022 28.694C200.022 29.6947 199.667 30.499 198.958 31.107C198.248 31.7023 197.077 32 195.443 32H190.503V21.626H193.334V25.635H195.329ZM197.191 28.732C197.191 27.972 196.551 27.592 195.272 27.592H193.334V30.043H195.31C195.867 30.043 196.317 29.9417 196.659 29.739C197.013 29.5363 197.191 29.2007 197.191 28.732Z" fill="#444B76"/>
<path d="M24 44C35.046 44 44 35.046 44 24C44 12.954 35.046 4 24 4C12.954 4 4 12.954 4 24C4 35.046 12.954 44 24 44Z" stroke="#444B76" stroke-width="4" stroke-linecap="round" stroke-linejoin="round"/>
<path d="M28 21V16" stroke="#444B76" stroke-width="4" stroke-linecap="round" stroke-linejoin="round"/>
<path d="M20 21V16" stroke="#444B76" stroke-width="4" stroke-linecap="round" stroke-linejoin="round"/>
<path d="M24 32C26.1217 32 28.1566 31.1571 29.6569 29.6569C31.1571 28.1566 32 26.1217 32 24V21H16V24C16 26.1217 16.8429 28.1566 18.3431 29.6569C19.8434 31.1571 21.8783 32 24 32Z" stroke="#444B76" stroke-width="4" stroke-linecap="round" stroke-linejoin="round"/>
<path d="M24 44V32" stroke="#444B76" stroke-width="4" stroke-linecap="round" stroke-linejoin="round"/>
<path d="M57.2402 37.8418H62.2549V45H60.8096V39.0527H58.6562V42.1094C58.6562 42.985 58.627 43.597 58.5684 43.9453C58.5098 44.2904 58.3665 44.5605 58.1387 44.7559C57.9141 44.9479 57.5609 45.0439 57.0791 45.0439C56.9098 45.0439 56.6022 45.0277 56.1562 44.9951V43.877L56.4785 43.8818C56.7812 43.8818 56.9847 43.8411 57.0889 43.7598C57.193 43.6784 57.2451 43.4782 57.2451 43.1592L57.2402 41.9287V37.8418ZM63.7051 39.8145H65.0234V43.0713L67.1328 39.8145H68.4805V45H67.1621V41.6846L65.0234 45H63.7051V39.8145ZM69.7305 39.8145H71.1172V41.0547C71.1172 41.3379 71.1416 41.5495 71.1904 41.6895C71.2425 41.8262 71.3499 41.945 71.5127 42.0459C71.6787 42.1436 71.887 42.1924 72.1377 42.1924C72.3818 42.1924 72.6553 42.137 72.958 42.0264V39.8145H74.3301V45H72.958V42.9297C72.4242 43.0729 72.0173 43.1445 71.7373 43.1445C71.3174 43.1445 70.9398 43.055 70.6045 42.876C70.2692 42.6937 70.0397 42.4626 69.916 42.1826C69.7923 41.8994 69.7305 41.5234 69.7305 41.0547V39.8145ZM75.6484 39.8145H77.0205V41.7139H78.9834V39.8145H80.3604V45H78.9834V42.8223H77.0205V45H75.6484V39.8145ZM81.7568 39.8145H83.1289V41.9678H84.5059C85.0462 41.9678 85.458 42.0068 85.7412 42.085C86.0277 42.1598 86.2686 42.3258 86.4639 42.583C86.6624 42.8402 86.7617 43.1429 86.7617 43.4912C86.7617 43.9925 86.5892 44.3701 86.2441 44.624C85.8991 44.8747 85.3815 45 84.6914 45H81.7568V39.8145ZM83.1289 44.1309H84.4033C84.7354 44.1309 84.9762 44.0788 85.126 43.9746C85.2757 43.8704 85.3506 43.7012 85.3506 43.4668C85.3506 43.2161 85.2529 43.0452 85.0576 42.9541C84.8656 42.8597 84.5189 42.8125 84.0176 42.8125H83.1289V44.1309ZM87.543 39.8145H88.915V45H87.543V39.8145ZM90.2578 39.8145H91.5762V43.0713L93.6855 39.8145H95.0332V45H93.7148V41.6846L91.5762 45H90.2578V39.8145ZM93.5439 37.71H94.2129C94.1738 38.1527 94.0176 38.501 93.7441 38.7549C93.474 39.0055 93.1224 39.1309 92.6895 39.1309C92.2565 39.1309 91.9033 39.0055 91.6299 38.7549C91.3597 38.501 91.2051 38.1527 91.166 37.71H91.835C91.8577 37.9411 91.9391 38.1169 92.0791 38.2373C92.2191 38.3545 92.4225 38.4131 92.6895 38.4131C92.9564 38.4131 93.1598 38.3545 93.2998 38.2373C93.4398 38.1169 93.5212 37.9411 93.5439 37.71ZM99.1738 39.8145H100.541V41.9336C100.769 41.9076 100.93 41.8376 101.024 41.7236C101.119 41.6097 101.233 41.3607 101.366 40.9766C101.542 40.4655 101.734 40.1383 101.942 39.9951C102.151 39.8519 102.424 39.7803 102.763 39.7803C102.867 39.7803 103.048 39.7884 103.305 39.8047L103.31 40.7129C102.948 40.7129 102.717 40.7471 102.616 40.8154C102.515 40.887 102.406 41.1003 102.289 41.4551C102.13 41.9336 101.9 42.2282 101.601 42.3389C102.034 42.4593 102.4 42.8353 102.699 43.4668C102.715 43.4993 102.733 43.5335 102.753 43.5693L103.52 45H102.045L101.361 43.501C101.221 43.1982 101.099 43.0046 100.995 42.9199C100.894 42.832 100.743 42.7881 100.541 42.7881V45H99.1738V39.8145ZM105.263 41.3965L104.018 41.1719C104.158 40.6706 104.398 40.2995 104.74 40.0586C105.082 39.8177 105.59 39.6973 106.264 39.6973C106.876 39.6973 107.331 39.7705 107.631 39.917C107.93 40.0602 108.14 40.2441 108.261 40.4688C108.384 40.6901 108.446 41.0986 108.446 41.6943L108.432 43.2959C108.432 43.7516 108.453 44.0885 108.495 44.3066C108.541 44.5215 108.624 44.7526 108.744 45H107.387C107.351 44.9089 107.307 44.7738 107.255 44.5947C107.232 44.5133 107.216 44.4596 107.206 44.4336C106.972 44.6615 106.721 44.8324 106.454 44.9463C106.187 45.0602 105.902 45.1172 105.6 45.1172C105.066 45.1172 104.644 44.9723 104.335 44.6826C104.029 44.3929 103.876 44.0267 103.876 43.584C103.876 43.291 103.946 43.0306 104.086 42.8027C104.226 42.5716 104.421 42.3958 104.672 42.2754C104.926 42.1517 105.29 42.0443 105.766 41.9531C106.407 41.8327 106.851 41.7204 107.099 41.6162V41.4795C107.099 41.2158 107.034 41.0286 106.903 40.918C106.773 40.804 106.527 40.7471 106.166 40.7471C105.922 40.7471 105.731 40.7959 105.595 40.8936C105.458 40.988 105.347 41.1556 105.263 41.3965ZM107.099 42.5098C106.923 42.5684 106.645 42.6383 106.264 42.7197C105.883 42.8011 105.634 42.8809 105.517 42.959C105.338 43.0859 105.248 43.2471 105.248 43.4424C105.248 43.6344 105.32 43.8005 105.463 43.9404C105.606 44.0804 105.788 44.1504 106.01 44.1504C106.257 44.1504 106.493 44.069 106.718 43.9062C106.884 43.7826 106.993 43.6312 107.045 43.4521C107.081 43.335 107.099 43.112 107.099 42.7832V42.5098ZM113.695 37.6758H114.628C114.599 38.0892 114.49 38.4033 114.301 38.6182C114.115 38.8298 113.655 38.9355 112.919 38.9355C112.831 38.9355 112.743 38.9339 112.655 38.9307H112.479C112.043 38.9307 111.688 38.9795 111.415 39.0771C111.142 39.1715 110.917 39.3571 110.741 39.6338C110.569 39.9105 110.479 40.3564 110.473 40.9717C110.674 40.5908 110.935 40.306 111.254 40.1172C111.576 39.9284 111.959 39.834 112.401 39.834C113.082 39.834 113.658 40.0993 114.13 40.6299C114.602 41.1572 114.838 41.7692 114.838 42.4658C114.838 43.1917 114.589 43.8151 114.091 44.3359C113.596 44.8568 112.948 45.1172 112.147 45.1172C111.597 45.1172 111.114 44.9854 110.697 44.7217C110.281 44.458 109.983 44.0983 109.804 43.6426C109.625 43.1836 109.535 42.4251 109.535 41.3672C109.535 40.1237 109.763 39.2301 110.219 38.6865C110.678 38.1429 111.477 37.8711 112.616 37.8711H113.31C113.502 37.8711 113.63 37.806 113.695 37.6758ZM110.932 42.4463C110.932 42.9183 111.049 43.2926 111.283 43.5693C111.521 43.8428 111.811 43.9795 112.152 43.9795C112.52 43.9795 112.821 43.8379 113.056 43.5547C113.293 43.2682 113.412 42.9004 113.412 42.4512C113.412 41.9922 113.292 41.6227 113.051 41.3428C112.813 41.0596 112.519 40.918 112.167 40.918C111.825 40.918 111.534 41.0563 111.293 41.333C111.052 41.6097 110.932 41.9808 110.932 42.4463ZM115.951 39.8145H117.27V43.0713L119.379 39.8145H120.727V45H119.408V41.6846L117.27 45H115.951V39.8145ZM122.084 39.8145H123.456V41.7139H125.419V39.8145H126.796V45H125.419V42.8223H123.456V45H122.084V39.8145ZM131.186 43.3496L132.553 43.5791C132.377 44.0804 132.099 44.4629 131.718 44.7266C131.34 44.987 130.867 45.1172 130.297 45.1172C129.395 45.1172 128.728 44.8226 128.295 44.2334C127.953 43.7614 127.782 43.1657 127.782 42.4463C127.782 41.5869 128.007 40.9147 128.456 40.4297C128.905 39.9414 129.473 39.6973 130.16 39.6973C130.932 39.6973 131.54 39.9528 131.986 40.4639C132.432 40.9717 132.646 41.7513 132.626 42.8027H129.188C129.198 43.2096 129.309 43.527 129.521 43.7549C129.732 43.9795 129.996 44.0918 130.312 44.0918C130.526 44.0918 130.707 44.0332 130.854 43.916C131 43.7988 131.111 43.61 131.186 43.3496ZM131.264 41.9629C131.254 41.5658 131.151 41.2646 130.956 41.0596C130.761 40.8512 130.523 40.7471 130.243 40.7471C129.944 40.7471 129.696 40.8561 129.501 41.0742C129.306 41.2923 129.21 41.5885 129.213 41.9629H131.264ZM132.997 39.8145H137.689V40.9229H136.029V45H134.657V40.9229H132.997V39.8145Z" fill="#393939"/>
</svg>
