<svg width="21" height="21" viewBox="0 0 21 21" fill="none" xmlns="http://www.w3.org/2000/svg">
<path d="M16.4456 9.00375C15.8261 5.60897 12.8625 3.03516 9.29051 3.03516V5.66016C10.5247 5.66189 11.7078 6.15293 12.5805 7.02562C13.4532 7.89831 13.9442 9.08143 13.9459 10.3156C13.9439 11.5494 13.4528 12.7321 12.5803 13.6045C11.7077 14.4769 10.525 14.9678 9.29116 14.9697V17.596C12.8625 17.5934 15.8274 15.0196 16.4463 11.6268H19.5241V9.00178H16.4463L16.4456 9.00375ZM13.3711 10.3163C13.3721 9.34903 13.0294 8.41292 12.4042 7.67497C11.7789 6.93702 10.9118 6.44524 9.95754 6.28739C9.00329 6.12955 8.024 6.31591 7.19443 6.81321C6.36485 7.31052 5.73897 8.08641 5.42848 9.00244H0.943665V11.6274H5.42848C5.73859 12.5438 6.3643 13.3202 7.1939 13.8179C8.0235 14.3156 9.00299 14.5023 9.9575 14.3445C10.912 14.1868 11.7794 13.695 12.4048 12.9569C13.0302 12.2188 13.3729 11.2824 13.3717 10.3149L13.3711 10.3163Z" fill="#393939"/>
</svg>
