<svg width="16" height="16" viewBox="0 0 16 16" fill="none" xmlns="http://www.w3.org/2000/svg">
<path d="M12.682 11.318C12.3698 11.0189 12.0659 10.7112 11.7707 10.3953C11.5227 10.1433 11.3733 9.95999 11.3733 9.95999L9.50667 9.06866C10.254 8.22109 10.6664 7.12999 10.6667 6C10.6667 3.42733 8.57334 1.33333 6 1.33333C3.42667 1.33333 1.33334 3.42733 1.33334 6C1.33334 8.57266 3.42667 10.6667 6 10.6667C7.17534 10.6667 8.24667 10.2267 9.06867 9.50733L9.96 11.374C9.96 11.374 10.1433 11.5233 10.3953 11.7713C10.6533 12.0133 10.9927 12.3407 11.318 12.6827L12.2233 13.6107L12.626 14.0413L14.04 12.6273L13.6093 12.2247C13.3567 11.9767 13.0193 11.6473 12.682 11.318V11.318ZM6 9.33333C4.162 9.33333 2.66667 7.838 2.66667 6C2.66667 4.162 4.162 2.66666 6 2.66666C7.838 2.66666 9.33334 4.162 9.33334 6C9.33334 7.838 7.838 9.33333 6 9.33333Z" fill="#393939"/>
</svg>
