<svg width="18" height="18" viewBox="0 0 18 18" fill="none" xmlns="http://www.w3.org/2000/svg">
<g clip-path="url(#clip0)">
<path d="M1.125 3.18149C2.12062 2.76524 3.54825 2.31636 4.9365 2.17686C6.43275 2.02611 7.70175 2.24774 8.4375 3.02286V13.9871C7.38562 13.3909 6.0525 13.3087 4.82288 13.4325C3.49538 13.5675 2.15662 13.9511 1.125 14.3449V3.18149ZM9.5625 3.02286C10.2982 2.24774 11.5673 2.02611 13.0635 2.17686C14.4518 2.31636 15.8794 2.76524 16.875 3.18149V14.3449C15.8423 13.9511 14.5046 13.5664 13.1771 13.4336C11.9464 13.3087 10.6144 13.3897 9.5625 13.9871V3.02286ZM9 2.00586C7.89187 1.05299 6.28538 0.911238 4.82288 1.05749C3.11963 1.22961 1.40063 1.81349 0.329625 2.30061C0.231355 2.34531 0.148022 2.41733 0.0895736 2.5081C0.031125 2.59886 2.98929e-05 2.70453 0 2.81249L0 15.1875C2.60572e-05 15.2816 0.0236668 15.3742 0.0687567 15.4568C0.113847 15.5394 0.178944 15.6094 0.258087 15.6603C0.33723 15.7113 0.427888 15.7415 0.521756 15.7484C0.615625 15.7552 0.709704 15.7383 0.795375 15.6994C1.78763 15.2494 3.38625 14.7082 4.93538 14.5519C6.5205 14.3921 7.84913 14.6497 8.56125 15.5385C8.61396 15.6042 8.68074 15.6572 8.75668 15.6936C8.83262 15.7301 8.91577 15.749 9 15.749C9.08423 15.749 9.16738 15.7301 9.24332 15.6936C9.31925 15.6572 9.38604 15.6042 9.43875 15.5385C10.1509 14.6497 11.4795 14.3921 13.0635 14.5519C14.6138 14.7082 16.2135 15.2494 17.2046 15.6994C17.2903 15.7383 17.3844 15.7552 17.4782 15.7484C17.5721 15.7415 17.6628 15.7113 17.7419 15.6603C17.8211 15.6094 17.8862 15.5394 17.9312 15.4568C17.9763 15.3742 18 15.2816 18 15.1875V2.81249C18 2.70453 17.9689 2.59886 17.9104 2.5081C17.852 2.41733 17.7686 2.34531 17.6704 2.30061C16.5994 1.81349 14.8804 1.22961 13.1771 1.05749C11.7146 0.910113 10.1081 1.05299 9 2.00586Z" fill="#444B76"/>
</g>
<defs>
<clipPath id="clip0">
<rect width="18" height="18" fill="white"/>
</clipPath>
</defs>
</svg>
