<svg width="23" height="23" viewBox="0 0 23 23" fill="none" xmlns="http://www.w3.org/2000/svg">
<path d="M13.2441 21.0833H9.7558C9.53724 21.0834 9.32523 21.0087 9.15493 20.8717C8.98463 20.7347 8.86629 20.5436 8.81951 20.3301L8.42947 18.5246C7.90915 18.2966 7.41578 18.0115 6.95843 17.6745L5.19797 18.2352C4.98959 18.3016 4.76476 18.2948 4.56079 18.2158C4.35683 18.1369 4.18602 17.9905 4.07672 17.801L2.32872 14.7813C2.22057 14.5917 2.17997 14.371 2.21357 14.1553C2.24717 13.9396 2.35297 13.7417 2.51368 13.594L3.8793 12.3481C3.8172 11.7838 3.8172 11.2143 3.8793 10.65L2.51368 9.40701C2.35275 9.2592 2.2468 9.06112 2.21319 8.84521C2.17959 8.62931 2.22032 8.40839 2.32872 8.21867L4.07289 5.19705C4.18219 5.0076 4.353 4.86124 4.55696 4.78227C4.76092 4.7033 4.98576 4.69647 5.19414 4.76292L6.9546 5.32355C7.18843 5.15105 7.43185 4.99005 7.68293 4.84438C7.92539 4.7083 8.17455 4.58467 8.42947 4.47446L8.82047 2.67088C8.86702 2.45736 8.98514 2.26616 9.15526 2.12899C9.32538 1.99181 9.53727 1.9169 9.7558 1.91667H13.2441C13.4627 1.9169 13.6746 1.99181 13.8447 2.12899C14.0148 2.26616 14.1329 2.45736 14.1795 2.67088L14.5743 4.47542C15.0943 4.70341 15.5874 4.98851 16.0444 5.32546L17.8058 4.76484C18.0141 4.69863 18.2387 4.70559 18.4424 4.78454C18.6462 4.8635 18.8168 5.00972 18.9261 5.19896L20.6703 8.22059C20.8926 8.61063 20.8159 9.10417 20.4853 9.40796L19.1197 10.6538C19.1818 11.2181 19.1818 11.7876 19.1197 12.352L20.4853 13.5978C20.8159 13.9025 20.8926 14.3951 20.6703 14.7852L18.9261 17.8068C18.8168 17.9962 18.646 18.1426 18.442 18.2216C18.2381 18.3005 18.0132 18.3074 17.8048 18.2409L16.0444 17.6803C15.5874 18.017 15.0943 18.3018 14.5743 18.5294L14.1795 20.3301C14.1327 20.5434 14.0145 20.7344 13.8444 20.8714C13.6743 21.0084 13.4625 21.0832 13.2441 21.0833ZM7.30247 15.5528L8.0883 16.1278C8.26559 16.2581 8.4496 16.3779 8.64126 16.4872C8.82143 16.5916 9.00543 16.6855 9.19614 16.7708L10.0903 17.1628L10.5282 19.1667H12.4736L12.9116 17.1618L13.8057 16.7699C14.1958 16.5974 14.5666 16.3837 14.9107 16.1316L15.6965 15.5566L17.6534 16.1795L18.6261 14.4948L17.1091 13.1119L17.2164 12.1421C17.2643 11.7175 17.2643 11.2892 17.2164 10.8656L17.1091 9.89576L18.6271 8.51001L17.6534 6.8243L15.6975 7.44721L14.9107 6.87221C14.5664 6.61892 14.196 6.40333 13.8057 6.22917L12.9116 5.83721L12.4736 3.83334H10.5282L10.0874 5.83817L9.19614 6.22917C8.80531 6.40034 8.43472 6.6144 8.09118 6.86742L7.30439 7.44242L5.34939 6.81951L4.37476 8.51001L5.8918 9.89096L5.78447 10.8618C5.73655 11.2863 5.73655 11.7147 5.78447 12.1383L5.8918 13.1081L4.37476 14.491L5.34747 16.1757L7.30247 15.5528ZM11.4961 15.3333C10.4795 15.3333 9.50445 14.9295 8.78556 14.2106C8.06667 13.4917 7.6628 12.5167 7.6628 11.5C7.6628 10.4833 8.06667 9.50832 8.78556 8.78943C9.50445 8.07054 10.4795 7.66667 11.4961 7.66667C12.5128 7.66667 13.4878 8.07054 14.2067 8.78943C14.9256 9.50832 15.3295 10.4833 15.3295 11.5C15.3295 12.5167 14.9256 13.4917 14.2067 14.2106C13.4878 14.9295 12.5128 15.3333 11.4961 15.3333ZM11.4961 9.58334C11.1208 9.58372 10.7539 9.69429 10.4408 9.90132C10.1277 10.1084 9.88237 10.4028 9.7351 10.748C9.58784 11.0932 9.54518 11.4741 9.61241 11.8433C9.67965 12.2126 9.85381 12.554 10.1133 12.8251C10.3728 13.0963 10.7062 13.2853 11.0721 13.3687C11.4381 13.4522 11.8204 13.4263 12.1718 13.2944C12.5232 13.1624 12.8281 12.9302 13.0487 12.6266C13.2693 12.3229 13.3959 11.9612 13.4128 11.5863V11.9696V11.5C13.4128 10.9917 13.2109 10.5042 12.8514 10.1447C12.492 9.78527 12.0045 9.58334 11.4961 9.58334Z" fill="#444B76"/>
</svg>
