<svg width="21" height="21" viewBox="0 0 21 21" fill="none" xmlns="http://www.w3.org/2000/svg">
<path d="M21 12.775C21 13.3 19.95 13.65 18.725 13.825C17.9375 12.3375 16.3625 11.2 14.525 10.4125C14.7 10.15 14.875 9.975 15.05 9.7125H15.75C18.4625 9.625 21 11.2875 21 12.775V12.775ZM5.95 9.625H5.25C2.5375 9.625 0 11.2875 0 12.775C0 13.3 1.05 13.65 2.275 13.825C3.0625 12.3375 4.6375 11.2 6.475 10.4125L5.95 9.625V9.625ZM10.5 10.5C12.425 10.5 14 8.925 14 7C14 5.075 12.425 3.5 10.5 3.5C8.575 3.5 7 5.075 7 7C7 8.925 8.575 10.5 10.5 10.5ZM10.5 11.375C6.9125 11.375 3.5 13.65 3.5 15.75C3.5 17.5 10.5 17.5 10.5 17.5C10.5 17.5 17.5 17.5 17.5 15.75C17.5 13.65 14.0875 11.375 10.5 11.375ZM15.4875 8.75H15.75C17.2375 8.75 18.375 7.6125 18.375 6.125C18.375 4.6375 17.2375 3.5 15.75 3.5C15.3125 3.5 14.9625 3.5875 14.6125 3.7625C15.3125 4.6375 15.75 5.775 15.75 7C15.75 7.6125 15.6625 8.225 15.4875 8.75ZM5.25 8.75H5.5125C5.3375 8.225 5.25 7.6125 5.25 7C5.25 5.775 5.6875 4.6375 6.3875 3.7625C6.0375 3.5875 5.6875 3.5 5.25 3.5C3.7625 3.5 2.625 4.6375 2.625 6.125C2.625 7.6125 3.7625 8.75 5.25 8.75Z" fill="#444B76"/>
</svg>
